{"title":"The Girlfriend Experience S01 720p BluRay HEVC 2CH x265 [720P][H","uid":15395436,"size":2695683799,"categoryP":"video","categoryS":"hd___tv_shows","magnet":"?xt=urn:btih:b91f100bd20a516d930c52fc43ea92e378dd10e7&amp;dn=The+Girlfriend+Experience+S01+720p+BluRay+HEVC+2CH+x265+%5B720P%5D%5BH&amp;tr=udp%3A%2F%2Ftracker.leechers-paradise.org%3A6969&amp;tr=udp%3A%2F%2Fzer0day.ch%3A1337&amp;tr=udp%3A%2F%2Fopen.demonii.com%3A1337&amp;tr=udp%3A%2F%2Ftracker.coppersurfer.tk%3A6969&amp;tr=udp%3A%2F%2Fexodus.desync.com%3A6969","seeders":3,"leechers":3,"uploader":"nayhtut","files":13,"time":1469390683,"description":"[Screenshots]\r\n \nhttps://s31.postimg.org/a799gti7f/The_Girlfriend_Experience_S01_E09_720p_Blu_Ray_HEV.jpg \nhttps://s31.postimg.org/tdmgjzyp7/The_Girlfriend_Experience_S01_E11_720p_Blu_Ray_HEV.jpg \nhttps://s31.postimg.org/ndypgcdwr/The_Girlfriend_Experience_S01_E10_720p_Blu_Ray_HEV.jpg \nhttps://s31.postimg.org/se0r218x7/The_Girlfriend_Experience_S01_E06_720p_Blu_Ray_HEV.jpg \nhttps://s31.postimg.org/lou7m0nl7/The_Girlfriend_Experience_S01_E05_720p_Blu_Ray_HEV.jpg \nhttps://s31.postimg.org/stc0v1uuj/The_Girlfriend_Experience_S01_E05_720p_Blu_Ray_HEV.jpg \nhttps://s31.postimg.org/q0itb0ui3/The_Girlfriend_Experience_S01_E03_720p_Blu_Ray_HEV.jpg \nhttps://s31.postimg.org/ty630fhbf/The_Girlfriend_Experience_S01_E01_720p_Blu_Ray_HEV.jpg\r\n\r\n\r\n\r\nSource: The Girlfriend Experience S01 720p BluRay x264-DEMAND (Size: 14.19 GB)\r\n\r\nContains:  The Girlfriend Experience Season One - Episode 01 to 13\r\n\r\nFormat                                   : Matroska\r\nFormat version                           : Version 4 / Version 2\r\nFile size                                : 2.51 GiB\r\nDuration                                 : Various\r\nOverall bit rate                         : 1 017 Kbps\r\nWriting application                      : Lavf57.25.100\r\nWriting library                          : Lavf57.25.100\r\n\r\nVideo\r\n\r\nID                                       : 1\r\nFormat                                   : V_MPEGH/ISO/HEVC\r\nCodec ID                                 : V_MPEGH/ISO/HEVC\r\nDuration                                 : 28mn 50s\r\nBit rate                                 : 804 Kbps\r\nWidth                                    : 1 280 pixels\r\nHeight                                   : 720 pixels\r\nDisplay aspect ratio                     : 16:9\r\nFrame rate                               : 25.000 fps\r\nBits/(Pixel*Frame)                       : 0.035\r\nStream size                              : 166 MiB (79%)\r\nWriting library                          : Lavc57.48.101 libx265\r\nLanguage                                 : English\r\nDefault                                  : Yes\r\nForced                                   : No\r\nDURATION                                 : 00:28:50.211000000\r\nNUMBER_OF_FRAMES                         : 41482\r\nNUMBER_OF_BYTES                          : 1029483281\r\n_STATISTICS_WRITING_APP                  : mkvmerge v8.3.0 ('Over the Horizon') 64bit\r\n_STATISTICS_WRITING_DATE_UTC             : 2016-07-21 21:20:50\r\n_STATISTICS_TAGS                         : BPS DURATION NUMBER_OF_FRAMES NUMBER_OF_BYTES\r\n\r\nAudio\r\n\r\nID                                       : 2\r\nFormat                                   : AC-3\r\nFormat/Info                              : Audio Coding 3\r\nMode extension                           : CM (complete main)\r\nFormat settings, Endianness              : Big\r\nCodec ID                                 : A_AC3\r\nDuration                                 : 28mn 50s\r\nBit rate mode                            : Constant\r\nBit rate                                 : 192 Kbps\r\nChannel(s)                               : 2 channels\r\nChannel positions                        : Front: L R\r\nSampling rate                            : 48.0 KHz\r\nBit depth                                : 16 bits\r\nCompression mode                         : Lossy\r\nStream size                              : 39.6 MiB (19%)\r\nWriting library                          : Lavc57.24.102 ac3\r\nLanguage                                 : English\r\nDefault                                  : Yes\r\nForced                                   : No\r\nDURATION                                 : 00:28:50.079000000\r\nNUMBER_OF_FRAMES                         : 54063\r\nNUMBER_OF_BYTES                          : 138401280\r\n_STATISTICS_WRITING_APP                  : mkvmerge v8.3.0 ('Over the Horizon') 64bit\r\n_STATISTICS_WRITING_DATE_UTC             : 2016-07-21 21:20:50\r\n_STATISTICS_TAGS                         : BPS DURATION NUMBER_OF_FRAMES NUMBER_OF_BYTES\r\n\r\nMenu\r\n\r\n00:00:00.000                             : :00:00:00.000\r\n00:00:37.037                             : :00:00:37.037\r\n00:01:29.756                             : :00:01:29.756\r\n00:10:40.473                             : :00:10:40.473\r\n00:19:42.181                             : :00:19:42.181\r\n00:27:18.303                             : :00:27:18.303\r\n\r\n\r\n__--__--__--__--__--__--__--__--__--__--__--__--__--\r\n\r\n\r\nIMDb: http://www.imdb.com/title/tt3846642\r\n\r\nAfter adding torrent with maget link,\r\n\r\nplease add this  following trackers list to the torrent for better seeds.\r\n\r\n\r\nudp://tracker.coppersurfer.tk:6969/announce\r\n\r\nudp://tracker.opentrackr.org:1337/announce\r\n \nhttp://tracker.baravik.org:6970/announce\r\n \nhttp://tracker2.wasabii.com.tw:6969/announce\r\n\r\nudp://9.rarbg.me:2710/announce\r\n\r\n\r\n__--__--__--__--__--__--__--__--__--__--__--__--__--\r\n\r\n\r\n Enjoy!","torrent":{"xt":"urn:btih:b91f100bd20a516d930c52fc43ea92e378dd10e7","amp;dn":"The+Girlfriend+Experience+S01+720p+BluRay+HEVC+2CH+x265+%5B720P%5D%5BH","amp;tr":["udp%3A%2F%2Ftracker.leechers-paradise.org%3A6969","udp%3A%2F%2Fzer0day.ch%3A1337","udp%3A%2F%2Fopen.demonii.com%3A1337","udp%3A%2F%2Ftracker.coppersurfer.tk%3A6969","udp%3A%2F%2Fexodus.desync.com%3A6969"],"infoHash":"b91f100bd20a516d930c52fc43ea92e378dd10e7","infoHashBuffer":{"type":"Buffer","data":[185,31,16,11,210,10,81,109,147,12,82,252,67,234,146,227,120,221,16,231]},"announce":[],"urlList":[]}}